<svg id="Layer_1" data-name="Layer 1" xmlns="http://www.w3.org/2000/svg" xmlns:xlink="http://www.w3.org/1999/xlink" viewBox="0 0 462.49 90.86"><defs><style>.cls-1{fill:#fff;}.cls-1,.cls-2,.cls-3,.cls-4,.cls-5,.cls-6,.cls-7{fill-rule:evenodd;}.cls-2{fill:url(#GradientFill_1);}.cls-3{fill:url(#GradientFill_2);}.cls-4{fill:url(#GradientFill_1-2);}.cls-5{fill:url(#GradientFill_1-3);}.cls-6{fill:url(#GradientFill_1-4);}.cls-7{fill:url(#GradientFill_1-5);}</style><linearGradient id="GradientFill_1" x1="44.31" y1="38.51" x2="48.47" y2="46.82" gradientUnits="userSpaceOnUse"><stop offset="0" stop-color="#cd3a29"/><stop offset="1" stop-color="#d6712c"/></linearGradient><linearGradient id="GradientFill_2" x1="34.66" y1="44.68" x2="53.17" y2="51.77" gradientUnits="userSpaceOnUse"><stop offset="0" stop-color="#cd3a29"/><stop offset="1" stop-color="#88231c"/></linearGradient><linearGradient id="GradientFill_1-2" x1="47.46" y1="25.51" x2="49.14" y2="5.38" xlink:href="#GradientFill_1"/><linearGradient id="GradientFill_1-3" x1="47.46" y1="65.36" x2="49.14" y2="85.48" xlink:href="#GradientFill_1"/><linearGradient id="GradientFill_1-4" x1="89.08" y1="45.79" x2="71.2" y2="45.49" xlink:href="#GradientFill_1"/><linearGradient id="GradientFill_1-5" x1="6.46" y1="45.79" x2="24.35" y2="45.49" xlink:href="#GradientFill_1"/></defs><path class="cls-1" d="M143.49,80.51a31,31,0,0,1-12.9-2.74A32.83,32.83,0,0,1,120,70.22a35.92,35.92,0,0,1-9.74-24.79A35.72,35.72,0,0,1,120,20.62a33.73,33.73,0,0,1,10.6-7.54,32,32,0,0,1,28,1.06,34.34,34.34,0,0,1,11.45,10.13l-12.95,7a19,19,0,0,0-6-4.64,17.38,17.38,0,0,0-14.84-.15,18.77,18.77,0,0,0-6,4.42,20.73,20.73,0,0,0-4.05,6.55,22.77,22.77,0,0,0,0,16,20.68,20.68,0,0,0,4.05,6.54,18.56,18.56,0,0,0,6,4.45,17.1,17.1,0,0,0,14.84-.15,18.7,18.7,0,0,0,6-4.7l12.95,7.05a34.47,34.47,0,0,1-11.45,10.1,30.66,30.66,0,0,1-15.12,3.82Zm52.14-68.9H212L236.5,79.25H221.14q-8.65-23.79-17.39-47.54-8.62,23.79-17.3,47.54H171.09l24.54-67.64Zm49.45,67.64h18.75l24.54-67.64H273l-18.56,51-18.55-51H220.54l24.54,67.64Zm51.46-67.64h16.33l24.54,67.64H322.05c-5.82-16-11.5-31.45-17.4-47.54-5.76,15.92-11.59,31.85-17.29,47.54H272l24.55-67.64Zm44.79,67.64V11.61h22.42a32.71,32.71,0,0,1,13.12,2.63,34.79,34.79,0,0,1,10.78,7.29,35.27,35.27,0,0,1,7.29,10.78,34,34,0,0,1,0,26.23,34.68,34.68,0,0,1-7.29,10.78,34.28,34.28,0,0,1-10.78,7.29,32.72,32.72,0,0,1-13.12,2.64Zm14.5-14.49h7.92a18.46,18.46,0,0,0,7.39-1.5,20.07,20.07,0,0,0,6.19-4.16,19.4,19.4,0,0,0,4.23-6.16,19.38,19.38,0,0,0,0-15A19.89,19.89,0,0,0,371.19,27.6a18.76,18.76,0,0,0-7.44-1.49h-7.92V64.76Zm63.44-53.15L394.73,79.25h15.36q8.64-23.76,17.3-47.54,8.72,23.79,17.39,47.54h15.36L435.6,11.61Z"/><polygon class="cls-2" points="47.77 31.58 61.63 45.43 33.92 45.43 47.77 31.58"/><polygon class="cls-3" points="47.77 59.28 33.92 45.43 61.63 45.43 47.77 59.28"/><polygon class="cls-4" points="33.95 13.82 47.77 0 61.6 13.82 61.6 29.65 47.77 15.82 33.95 29.65 33.95 13.82"/><polygon class="cls-5" points="33.95 77.04 47.77 90.86 61.6 77.04 61.6 61.22 47.77 75.04 33.95 61.22 33.95 77.04"/><polygon class="cls-6" points="93.21 45.43 67.51 71.13 67.51 55.3 77.38 45.43 67.51 35.56 67.51 19.74 93.21 45.43"/><polygon class="cls-7" points="2.34 45.43 28.04 71.13 28.04 55.3 18.17 45.43 28.04 35.56 28.04 19.74 2.34 45.43"/></svg>